<svg xmlns="http://www.w3.org/2000/svg" id="comeback" width="285" height="86" viewBox="0 0 285 86">
    <defs>
        <style>
            .cls-1{fill:none;opacity:.278}.cls-2{fill:#fff}.cls-3{fill:#a91c1c}
        </style>
    </defs>
    <path id="사각형_1924" d="M0 0h285v86H0z" class="cls-1" data-name="사각형 1924"/>
    <path id="합치기_13" d="M202.47-1331.61a1.552 1.552 0 0 1-1.111-1.36h1.71a.683.683 0 0 0 .36.46 2.5 2.5 0 0 0 .99.15 1.752 1.752 0 0 0 1.04-.26 1.346 1.346 0 0 0 .44-1.14v-.39a2.487 2.487 0 0 1-1.95.72 2.848 2.848 0 0 1-2.11-.75 2.306 2.306 0 0 1-.671-1.7 2.253 2.253 0 0 1 .69-1.72 3.079 3.079 0 0 1 2.21-.72 2.258 2.258 0 0 1 1.86.72h.01v-.59h1.55v4.5a2.041 2.041 0 0 1-.8 1.8 4.029 4.029 0 0 1-2.33.54 5.443 5.443 0 0 1-1.888-.26zm.35-4.24c0 .89.509 1.34 1.53 1.34s1.54-.45 1.54-1.34-.51-1.34-1.54-1.34-1.53.45-1.53 1.34zm5.359 1.031h1.77c.07.46.47.689 1.19.689.77 0 1.16-.18 1.16-.53a.327.327 0 0 0-.17-.31 2.269 2.269 0 0 0-.74-.18l-1.46-.2a2.46 2.46 0 0 1-1.191-.4 1.148 1.148 0 0 1-.419-.979c0-1.091.89-1.641 2.669-1.641a4.028 4.028 0 0 1 2.25.49 1.528 1.528 0 0 1 .64 1.17h-1.768q-.12-.66-1.08-.661c-.7 0-1.05.17-1.05.52a.3.3 0 0 0 .15.28 1.8 1.8 0 0 0 .67.17l1.111.12a3.564 3.564 0 0 1 1.7.5 1.122 1.122 0 0 1 .45 1.01 1.38 1.38 0 0 1-.979 1.37 5.652 5.652 0 0 1-2.03.281c-1.832 0-2.792-.57-2.872-1.7zm-33.84 1.08a2.375 2.375 0 0 1-.89-2.011 2.345 2.345 0 0 1 .89-2.01 3.8 3.8 0 0 1 2.33-.62 3.318 3.318 0 0 1 2.36.77 2.794 2.794 0 0 1 .78 2.14v.149h-4.7v.02a1.029 1.029 0 0 0 .37.77 1.684 1.684 0 0 0 1.19.409 1.362 1.362 0 0 0 1.33-.64h1.71c-.43 1.09-1.45 1.641-3.04 1.641a3.847 3.847 0 0 1-2.329-.619zm1.05-3.13a.957.957 0 0 0-.29.58v.021h3.039v-.011a.938.938 0 0 0-.32-.64 1.554 1.554 0 0 0-1.19-.45 1.575 1.575 0 0 0-1.238.499zm-27.01 3.13a2.373 2.373 0 0 1-.89-2.011 2.345 2.345 0 0 1 .89-2.01 3.8 3.8 0 0 1 2.33-.62 3.855 3.855 0 0 1 2.34.62 2.341 2.341 0 0 1 .879 2.01 2.368 2.368 0 0 1-.879 2.011 3.861 3.861 0 0 1-2.34.62 3.825 3.825 0 0 1-2.329-.621zm1.17-3.12a1.472 1.472 0 0 0-.41 1.11 1.436 1.436 0 0 0 .41 1.111 1.627 1.627 0 0 0 1.16.39 1.609 1.609 0 0 0 1.159-.39 1.472 1.472 0 0 0 .41-1.111 1.432 1.432 0 0 0-.41-1.11 1.626 1.626 0 0 0-1.159-.39 1.61 1.61 0 0 0-1.159.389zm-26.87 3.12a2.375 2.375 0 0 1-.89-2.011 2.345 2.345 0 0 1 .89-2.01 3.8 3.8 0 0 1 2.33-.62 3.284 3.284 0 0 1 2.36.77 2.794 2.794 0 0 1 .78 2.14v.149h-4.7v.02a1.029 1.029 0 0 0 .37.77 1.684 1.684 0 0 0 1.19.409 1.362 1.362 0 0 0 1.33-.64h1.71c-.43 1.09-1.45 1.641-3.04 1.641a3.847 3.847 0 0 1-2.329-.619zm1.06-3.13a.957.957 0 0 0-.29.58v.021h3.039v-.011a.938.938 0 0 0-.319-.64 1.554 1.554 0 0 0-1.19-.45 1.575 1.575 0 0 0-1.239.499zm-20.97 3.13a2.373 2.373 0 0 1-.89-2.011 2.345 2.345 0 0 1 .89-2.01 3.8 3.8 0 0 1 2.33-.62 3.286 3.286 0 0 1 2.36.77 2.794 2.794 0 0 1 .78 2.14v.149h-4.7v.02a1.03 1.03 0 0 0 .371.77 1.684 1.684 0 0 0 1.19.409 1.362 1.362 0 0 0 1.33-.64h1.71c-.43 1.09-1.451 1.641-3.04 1.641a3.847 3.847 0 0 1-2.33-.619zm1.06-3.13a.959.959 0 0 0-.291.58v.021h3.04v-.011a.938.938 0 0 0-.32-.64 1.555 1.555 0 0 0-1.191-.45 1.574 1.574 0 0 0-1.237.499zm-32.241 3.13a2.375 2.375 0 0 1-.889-2.011 2.347 2.347 0 0 1 .889-2.01 3.8 3.8 0 0 1 2.33-.62 3.851 3.851 0 0 1 2.34.62 2.365 2.365 0 0 1 .88 2.01 2.367 2.367 0 0 1-.88 2.011 3.857 3.857 0 0 1-2.34.62 3.828 3.828 0 0 1-2.328-.621zm1.17-3.12a1.471 1.471 0 0 0-.41 1.11 1.435 1.435 0 0 0 .41 1.111 1.629 1.629 0 0 0 1.16.39 1.61 1.61 0 0 0 1.16-.39 1.472 1.472 0 0 0 .41-1.111 1.435 1.435 0 0 0-.41-1.11 1.627 1.627 0 0 0-1.16-.39 1.612 1.612 0 0 0-1.158.389zm-43.24 3.12a2.373 2.373 0 0 1-.89-2.011 2.345 2.345 0 0 1 .89-2.01 3.8 3.8 0 0 1 2.33-.62 3.3 3.3 0 0 1 2.36.77 2.794 2.794 0 0 1 .78 2.14v.149h-4.7v.02a1.029 1.029 0 0 0 .37.77 1.684 1.684 0 0 0 1.19.409 1.362 1.362 0 0 0 1.33-.64h1.71c-.43 1.09-1.45 1.641-3.04 1.641a3.847 3.847 0 0 1-2.328-.619zm1.05-3.13a.959.959 0 0 0-.291.58v.021h3.04v-.011a.938.938 0 0 0-.319-.64 1.555 1.555 0 0 0-1.191-.45 1.574 1.574 0 0 0-1.237.499zm102.839 2.14c0-.91.671-1.41 2.021-1.5l1.71-.12a1.042 1.042 0 0 0 .52-.13.435.435 0 0 0 .139-.38c0-.39-.42-.58-1.26-.58a2.09 2.09 0 0 0-.8.11.967.967 0 0 0-.46.62h-1.55a1.636 1.636 0 0 1 1.02-1.4 5.03 5.03 0 0 1 1.87-.27 4 4 0 0 1 2.26.48 1.4 1.4 0 0 1 .53 1.181h-.01v2.419a2.419 2.419 0 0 0 .18.98h-1.6a2.092 2.092 0 0 1-.11-.519 3.141 3.141 0 0 1-2.29.7c-1.447-.002-2.167-.532-2.167-1.592zm3.5-.751l-.93.08a1.457 1.457 0 0 0-.65.18.529.529 0 0 0-.2.46.583.583 0 0 0 .281.5 1.317 1.317 0 0 0 .73.18 2.156 2.156 0 0 0 1.16-.3 1.028 1.028 0 0 0 .56-.911v-.4a2.985 2.985 0 0 1-.948.211zm-51.94.751c0-.91.671-1.41 2.021-1.5l1.71-.12a1.041 1.041 0 0 0 .519-.13.435.435 0 0 0 .14-.38c0-.39-.42-.58-1.26-.58a2.09 2.09 0 0 0-.8.11.967.967 0 0 0-.46.62H85.29a1.635 1.635 0 0 1 1.02-1.4 5.03 5.03 0 0 1 1.87-.27 4 4 0 0 1 2.26.48 1.4 1.4 0 0 1 .53 1.181h-.01v2.419a2.4 2.4 0 0 0 .18.98h-1.6a2.092 2.092 0 0 1-.11-.519 3.142 3.142 0 0 1-2.291.7c-1.449-.002-2.169-.532-2.169-1.592zm3.5-.751l-.93.08a1.462 1.462 0 0 0-.651.18.531.531 0 0 0-.2.46.582.582 0 0 0 .28.5 1.319 1.319 0 0 0 .73.18 2.154 2.154 0 0 0 1.16-.3 1.029 1.029 0 0 0 .561-.911v-.4a2.985 2.985 0 0 1-.947.211zm-39.29.751c0-.91.671-1.41 2.021-1.5l1.71-.12a1.042 1.042 0 0 0 .52-.13.435.435 0 0 0 .139-.38c0-.39-.419-.58-1.26-.58a2.091 2.091 0 0 0-.8.11.967.967 0 0 0-.46.62H49.5a1.636 1.636 0 0 1 1.02-1.4 5.03 5.03 0 0 1 1.87-.27 4 4 0 0 1 2.26.48 1.4 1.4 0 0 1 .53 1.181h-.01v2.419a2.419 2.419 0 0 0 .18.98h-1.6a2.092 2.092 0 0 1-.11-.519 3.14 3.14 0 0 1-2.29.7c-1.45-.002-2.17-.532-2.17-1.592zm3.5-.751l-.93.08a1.457 1.457 0 0 0-.65.18.529.529 0 0 0-.2.46.582.582 0 0 0 .28.5 1.316 1.316 0 0 0 .73.18 2.156 2.156 0 0 0 1.16-.3 1.028 1.028 0 0 0 .56-.911v-.4a2.979 2.979 0 0 1-.947.211zm111.02 1.89a1.654 1.654 0 0 1-.26-1.059v-2.47h-1.01v-1.08h1.01v-1.51h1.6v1.52h1.29v1.07h-1.29v2.281a.532.532 0 0 0 .11.4.617.617 0 0 0 .43.11c.18 0 .44-.02.779-.04v1.08a11.025 11.025 0 0 1-1.26.09 1.9 1.9 0 0 1-1.396-.392zm30.919.291v-4.891h1.551v.69h.02a1.868 1.868 0 0 1 .76-.57 3.028 3.028 0 0 1 1.24-.26 2.589 2.589 0 0 1 1.36.339 1.544 1.544 0 0 1 .73 1.43v3.25h-1.6v-2.769c0-.671-.36-1-1.08-1a1.233 1.233 0 0 0-1.381 1.409v2.371zm-2.689 0v-4.891h1.6v4.891zm-37.13 0v-4.891h1.55v.95h.02a3.338 3.338 0 0 1 .86-.82 2.032 2.032 0 0 1 1.08-.25 3.059 3.059 0 0 1 .58.05v1.5a3.236 3.236 0 0 0-.879-.15c-1.07 0-1.61.5-1.61 1.5v2.11zm-10.45 0v-3.811h-1.01v-1.08h1.01v-.249a1.6 1.6 0 0 1 .39-1.281 2.7 2.7 0 0 1 1.51-.28c.15 0 .48.01 1.01.02v.98h-.81a.642.642 0 0 0-.36.08.515.515 0 0 0-.139.42v.31h1.29v1.07h-1.29v3.82zm-15.39 0v-4.891h1.55v.95h.02a3.338 3.338 0 0 1 .86-.82 2.055 2.055 0 0 1 1.08-.25 3.066 3.066 0 0 1 .58.05v1.5a3.236 3.236 0 0 0-.879-.15c-1.07 0-1.61.5-1.61 1.5v2.11zm-33.57 0v-4.891h1.55v.69h.02a1.872 1.872 0 0 1 .76-.57 3.025 3.025 0 0 1 1.24-.26 2.589 2.589 0 0 1 1.36.339 1.572 1.572 0 0 1 .74 1.43v3.25h-1.6v-2.769c0-.671-.36-1-1.08-1a1.233 1.233 0 0 0-1.377 1.41v2.371zm-16.86 0v-3.811H77.52v-1.08h1.01v-.249a1.6 1.6 0 0 1 .39-1.281 2.7 2.7 0 0 1 1.51-.28c.149 0 .49.01 1.01.02v.98h-.81a.642.642 0 0 0-.36.08.515.515 0 0 0-.14.42v.31h1.29v1.07h-1.29v3.82zm-22.3 0v-4.891h1.55v.95h.02a3.338 3.338 0 0 1 .86-.82 2.009 2.009 0 0 1 1.08-.25 3.067 3.067 0 0 1 .58.05v1.5a3.241 3.241 0 0 0-.88-.15c-1.069 0-1.609.5-1.609 1.5v2.11zm-9.45 0v-2.94c0-.56-.32-.84-.98-.84a1.3 1.3 0 0 0-.86.27 1.089 1.089 0 0 0-.36.86v2.65h-1.6v-2.94c0-.56-.33-.84-.97-.84a1.36 1.36 0 0 0-.88.27 1.086 1.086 0 0 0-.36.86v2.65h-1.6v-4.891h1.55v.7h.021a1.862 1.862 0 0 1 .76-.57 3.025 3.025 0 0 1 1.24-.26 1.662 1.662 0 0 1 1.69.92 2.364 2.364 0 0 1 2.01-.92 2.175 2.175 0 0 1 1.34.37 1.543 1.543 0 0 1 .6 1.33v3.32zm142.3-.011l-2.21-2.82-1.03.89v1.93h-1.77v-6.51h1.77v2.8l3.02-2.8h2.38l-2.99 2.62 3.219 3.89zm-18.06 0v-2.769c0-.671-.36-1-1.08-1a1.233 1.233 0 0 0-1.38 1.409v2.36h-1.6v-6.62h1.6v2.43a1.519 1.519 0 0 1 .71-.57 2.991 2.991 0 0 1 1.24-.26 2.626 2.626 0 0 1 1.37.339 1.572 1.572 0 0 1 .74 1.43v3.25zm-56.63 0l-1.06-3.149h-.01l-1.06 3.149h-1.92l-1.83-4.88h1.769l1.12 3.33h.02l1.13-3.33h1.55l1.13 3.33h.021l1.12-3.33h1.77l-1.821 4.88zm-49.44 0l-1.6-2.03-.78.63v1.4H60.96v-6.62h1.61v3.559l2.12-1.82h2.23l-2.32 1.86 2.47 3.02zm-38.75 0v-2.769c0-.671-.36-1-1.08-1a1.233 1.233 0 0 0-1.38 1.409v2.36h-1.6v-6.62h1.6v2.45a1.731 1.731 0 0 1 .71-.589 2.987 2.987 0 0 1 1.239-.26 2.627 2.627 0 0 1 1.371.339 1.572 1.572 0 0 1 .74 1.43v3.25zm-8.78 0v-5.27H15v-1.24h6.6v1.24h-2.42v5.27zm174.51-5.49v-1.13h1.6v1.13z" class="cls-2" data-name="합치기 13" transform="translate(-14 1341)"/>
    <path id="합치기_14" d="M248.678-1344.616a10.956 10.956 0 0 1-2.332-7.292 10.956 10.956 0 0 1 2.332-7.292q3.289-3.974 10.943-3.979t10.943 3.979a10.956 10.956 0 0 1 2.332 7.292 10.956 10.956 0 0 1-2.332 7.292q-3.289 3.974-10.943 3.979t-10.943-3.979zm5.417-12.134a7.369 7.369 0 0 0-1.588 4.842 7.442 7.442 0 0 0 1.588 4.842 6.68 6.68 0 0 0 5.526 2.361 6.693 6.693 0 0 0 5.526-2.361 7.369 7.369 0 0 0 1.588-4.842 7.441 7.441 0 0 0-1.588-4.842 6.68 6.68 0 0 0-5.526-2.361 6.693 6.693 0 0 0-5.521 2.361zm-135.13 12.134a10.961 10.961 0 0 1-2.331-7.292 10.96 10.96 0 0 1 2.331-7.292q3.29-3.974 10.944-3.979t10.943 3.979a10.956 10.956 0 0 1 2.331 7.292 10.956 10.956 0 0 1-2.331 7.292q-3.289 3.974-10.943 3.979t-10.943-3.979zm5.427-12.134a7.373 7.373 0 0 0-1.587 4.842 7.446 7.446 0 0 0 1.587 4.842 6.683 6.683 0 0 0 5.527 2.361 6.694 6.694 0 0 0 5.526-2.361 7.483 7.483 0 0 0 1.588-4.842 7.446 7.446 0 0 0-1.588-4.842 6.681 6.681 0 0 0-5.526-2.361 6.7 6.7 0 0 0-5.526 2.361zm-46.7 4.842a10.518 10.518 0 0 1 3.284-8.105q3.407-3.17 9.326-3.165 11.206 0 12.551 7.6h-6.458q-1.1-3.526-5.437-3.532a6.694 6.694 0 0 0-5.526 2.361 7.373 7.373 0 0 0-1.588 4.842 7.392 7.392 0 0 0 1.588 4.842 6.681 6.681 0 0 0 5.526 2.361q5.388 0 6.311-4.722H92.1v-3.711h10.884v11.906h-2.927l-.774-2.48q-2.871 3.079-8.968 3.075-12.622-.001-12.622-11.272zm117.449 10.676l-7.273-9.238-3.373 2.9v6.341h-5.8v-21.352h5.8v9.177l9.922-9.177h7.808l-9.811 8.581 10.557 12.769zm-49.091 0v-21.352h19.08v4.068h-13.275v4.663h12.432v4.068h-12.432v8.553zm-77.892 0l-11.668-14.892v14.892h-5.614v-21.352h6.746l11.241 14.892v-14.892h5.625v21.352zm-36.719 0l-7.262-9.238-3.373 2.9v6.341H15v-21.352h5.8v9.177l9.921-9.177h7.8l-9.8 8.582 10.556 12.769zm244.324-.01v-21.342h14.347c2.758 0 4.762.715 6.043 2.154a6.412 6.412 0 0 1 1.5 4.335 7.438 7.438 0 0 1-1.805 5.348 6.976 6.976 0 0 1-5.279 1.885h-9v7.62zm5.794-11.509h6.221a6.387 6.387 0 0 0 2.629-.387 2.53 2.53 0 0 0 1.25-2.55 2.777 2.777 0 0 0-1.042-2.54 4.374 4.374 0 0 0-2.3-.476h-6.756zm-58.913 11.509v-21.342h14.346c2.749 0 4.762.724 6.042 2.154a6.311 6.311 0 0 1 1.5 4.335 7.438 7.438 0 0 1-1.805 5.348 6.976 6.976 0 0 1-5.279 1.885h-9v7.62zm5.794-11.509h6.22a6.392 6.392 0 0 0 2.63-.387 2.546 2.546 0 0 0 1.25-2.55 2.777 2.777 0 0 0-1.042-2.54 4.374 4.374 0 0 0-2.3-.476h-6.756zM41-1341.242v-21.341h5.8v21.341zm163.077-5.705v-3.711h15.13v3.711z" class="cls-2" data-name="합치기 14" transform="translate(-14 1387.357)"/>
    <path id="합치기_15" d="M135.61-1371.14a7.509 7.509 0 0 1-4.95-7.45h7.88q.061 4.155 6.65 4.161 5.535 0 5.531-3.22a2.2 2.2 0 0 0-1.16-2.06 9.81 9.81 0 0 0-3.22-.9l-6.4-.98a15.68 15.68 0 0 1-6.11-1.92 6.05 6.05 0 0 1-2.71-5.39q0-8.1 12.8-8.1 13.125 0 13.66 8.2h-7.77a3.68 3.68 0 0 0-2.351-3.11 10.929 10.929 0 0 0-4.119-.609 6.258 6.258 0 0 0-3.451.85 2.538 2.538 0 0 0-1.319 2.19c0 1.3.98 2.11 2.96 2.42l8.789 1.41q8.281 1.35 8.28 7.24 0 8.686-13.41 8.68c-4.19-.002-7.39-.472-9.58-1.412zm100.8-12.23q0-13.635 15.26-13.63 13.966 0 15.2 10.47h-7.56a6.24 6.24 0 0 0-2.57-4.189 8.194 8.194 0 0 0-4.81-1.371c-2.97 0-5.14 1.021-6.51 3.04a9.89 9.89 0 0 0-1.55 5.68 9.811 9.811 0 0 0 1.55 5.68q2.07 3.046 6.51 3.04a8.015 8.015 0 0 0 4.7-1.34 6.2 6.2 0 0 0 2.67-4.379h7.63a10.521 10.521 0 0 1-4.88 8.14q-3.915 2.491-10.381 2.49-15.254-.001-15.259-13.631zm-162.12 8.82a13.264 13.264 0 0 1-2.82-8.82 13.266 13.266 0 0 1 2.82-8.82q3.975-4.81 13.23-4.81t13.23 4.81a13.262 13.262 0 0 1 2.821 8.82 13.26 13.26 0 0 1-2.821 8.82q-3.974 4.815-13.23 4.811t-13.23-4.811zm6.54-14.68a8.966 8.966 0 0 0-1.92 5.86 8.964 8.964 0 0 0 1.92 5.86 8.085 8.085 0 0 0 6.69 2.86 8.117 8.117 0 0 0 6.691-2.86 9.019 9.019 0 0 0 1.92-5.86 8.966 8.966 0 0 0-1.92-5.86 8.089 8.089 0 0 0-6.691-2.86 8.117 8.117 0 0 0-6.69 2.86zm209.35 18.77l-8.789-11.17-4.081 3.5v7.671h-7.02v-25.82h7.02v11.1l12-11.1h9.439L286.89-1385.9l12.759 15.44zm-62.18 0l-2.1-5.31h-11.86l-2.1 5.31h-7.56l11.35-25.82h8.46l11.37 25.82zm-12.09-10.021h8.1l-4.05-10.229zm-40.71 10.021v-25.82h19.37a8.21 8.21 0 0 1 5.06 1.45 6.043 6.043 0 0 1 2.21 5.06 5.969 5.969 0 0 1-.79 3.04 4.627 4.627 0 0 1-2.64 2.13v.069a5.061 5.061 0 0 1 3.43 2.281 7.045 7.045 0 0 1 1.16 3.98 7.548 7.548 0 0 1-1.77 5.21q-2.356 2.595-7.63 2.6zm7.02-4.92h10.34c2 0 3-1.01 3-3.04q0-3.1-3.72-3.109h-9.62zm0-10.64h9.76c1.76 0 2.64-.92 2.64-2.78s-1.21-2.78-3.62-2.78h-8.78zm-61.8 15.56v-25.82h7.01v25.82zm-58.07 0l-6.29-8.71-6.29 8.71h-8.71l10.95-13.31-10.05-12.51h8.43l5.67 8.03 5.68-8.03h8.42l-10.05 12.51 10.96 13.31zm-46.35 0v-25.82h24.12v4.919H23.01v5.351h16.24v4.7H23.01v5.93h17.25v4.92z" class="cls-3" data-name="합치기 15" transform="translate(-15 1455)"/>
</svg>
