<svg xmlns="http://www.w3.org/2000/svg" id="Days" width="34" height="12" viewBox="0 0 34 12">
    <defs>
        <style>
            .cls-1{fill:none;opacity:.505}.cls-2{fill:#fff}
        </style>
    </defs>
    <path id="사각형_1901" d="M0 0h34v12H0z" class="cls-1" data-name="사각형 1901"/>
    <path id="패스_596" d="M0 7.934V0h4.944a3.784 3.784 0 0 1 2.963 1.092 4.03 4.03 0 0 1 .935 2.87 4.157 4.157 0 0 1-.926 2.879 3.551 3.551 0 0 1-2.787 1.093H0zm2.157-6.425v4.907h2.4c1.38 0 2.065-.843 2.065-2.537C6.62 2.3 5.861 1.5 4.351 1.5H2.157z" class="cls-2" data-name="패스 596" transform="translate(.926 .89)"/>
    <path id="패스_597" d="M12.679 3.936H10.79a2.023 2.023 0 0 1 1.241-1.713 6.028 6.028 0 0 1 2.278-.333 4.819 4.819 0 0 1 2.759.593 1.678 1.678 0 0 1 .648 1.435v2.953a2.972 2.972 0 0 0 .222 1.2h-1.954a2.109 2.109 0 0 1-.13-.63 3.819 3.819 0 0 1-2.787.852c-1.759 0-2.648-.648-2.648-1.935 0-1.111.824-1.722 2.463-1.833l2.074-.148a1.218 1.218 0 0 0 .63-.157.551.551 0 0 0 .167-.463c0-.472-.509-.713-1.537-.713a2.659 2.659 0 0 0-.981.13 1.274 1.274 0 0 0-.556.762zm3.148 1.722v-.481a3.4 3.4 0 0 1-1.157.259l-1.13.1a1.641 1.641 0 0 0-.787.213.63.63 0 0 0-.241.565.686.686 0 0 0 .343.611 1.6 1.6 0 0 0 .88.213 2.553 2.553 0 0 0 1.407-.37 1.226 1.226 0 0 0 .685-1.11z" class="cls-2" data-name="패스 597" transform="translate(.153 .75)"/>
    <path id="패스_598" d="M24.232 2.14h2.092l-3.258 6.935a2.055 2.055 0 0 1-.8.981 2.7 2.7 0 0 1-1.3.25c-.315 0-.768-.019-1.38-.046V8.88c.37.028.648.046.843.046a.956.956 0 0 0 .926-.611l.2-.435-2.8-5.74h2.12l1.7 3.935z" class="cls-2" data-name="패스 598" transform="translate(-.466 .731)"/>
    <path id="패스_599" d="M27.08 6.233h2.157c.093.565.583.843 1.454.843.944 0 1.407-.213 1.407-.648a.42.42 0 0 0-.213-.38 2.7 2.7 0 0 0-.9-.213l-1.778-.241a2.975 2.975 0 0 1-1.442-.494 1.406 1.406 0 0 1-.509-1.2c0-1.333 1.083-2 3.259-2a4.831 4.831 0 0 1 2.74.593 1.917 1.917 0 0 1 .778 1.426h-2.157c-.093-.537-.537-.8-1.324-.8-.852 0-1.278.213-1.278.63a.367.367 0 0 0 .176.343 2.119 2.119 0 0 0 .815.213l1.352.148a4.364 4.364 0 0 1 2.065.611 1.416 1.416 0 0 1 .565 1.222 1.681 1.681 0 0 1-1.2 1.667 6.948 6.948 0 0 1-2.481.343c-2.218.004-3.384-.696-3.486-2.063z" class="cls-2" data-name="패스 599" transform="translate(-1.082 .749)"/>
</svg>
