<svg xmlns="http://www.w3.org/2000/svg" id="title" width="249" height="61" viewBox="0 0 249 61">
    <defs>
        <style>
            .cls-1{fill:none;opacity:.307}.cls-2,.cls-3{fill:#fff}.cls-3{fill-rule:evenodd}
        </style>
    </defs>
    <path id="사각형_1922" d="M0 0h249v61H0z" class="cls-1" data-name="사각형 1922"/>
    <g id="그룹_911" data-name="그룹 911" transform="translate(-118 -79)">
        <path id="패스_559" d="M26.441 13.379l4.236-4.409h-4.486l-2.515 2.617a19.767 19.767 0 0 0-8.357-1.613C6.1 9.975.256 14.422.256 22.6c0 4.019 1.395 7.141 3.942 9.253L0 36.23h4.486L7 33.613a19.6 19.6 0 0 0 8.325 1.613c9.183 0 15.031-4.447 15.031-12.625a11.576 11.576 0 0 0-3.915-9.222zM6.924 29.057A8.432 8.432 0 0 1 4.447 22.6c0-6.169 4.2-9.074 10.872-9.074a15.757 15.757 0 0 1 5.631.9zm8.4 2.624a15.394 15.394 0 0 1-5.593-.9l14.027-14.6a8.42 8.42 0 0 1 2.433 6.419c-.006 6.175-4.197 9.08-10.872 9.08z" class="cls-2" data-name="패스 559" transform="translate(119 102.77)"/>
        <path id="패스_560" d="M74.766 21.973a4.827 4.827 0 0 0 3.123-4.665c0-3.731-2.656-6.1-8.216-6.1H54.89V35.6H70.2c5.887 0 9.4-2.547 9.4-7.391a6.047 6.047 0 0 0-4.834-6.236zm-15.717-7.244H69.6c2.905 0 4.089 1.145 4.089 3.014 0 1.83-1.184 3.014-4.089 3.014H59.049zM70.133 32.09H59.049v-8h11.084c3.66 0 5.2 1.574 5.2 3.98.002 2.44-1.54 4.02-5.2 4.02z" class="cls-2" data-name="패스 560" transform="translate(99.234 101.963)"/>
        <path id="패스_561" d="M99.52 33.208V28.9l3.622 1.4a31.119 31.119 0 0 0 9.759 1.792c4.415 0 6.636-1.325 6.636-3.66 0-1.613-1.113-2.656-4.953-3.372l-6.815-1.184c-5.055-.9-8.069-2.835-8.069-6.6 0-4.236 3.583-6.745 10.008-6.745a39.213 39.213 0 0 1 12.088 2.3V17.1l-3.411-1.216a26.255 26.255 0 0 0-8.825-1.684c-3.871 0-5.67 1.075-5.67 2.976 0 1.581 1.331 2.585 4.876 3.232l7.034 1.212c5.094.934 7.89 2.835 7.89 6.745 0 4.524-3.763 7.429-10.942 7.429a38.515 38.515 0 0 1-13.228-2.586" class="cls-3" data-name="패스 561" transform="translate(83.164 102.208)"/>
        <path id="패스_562" d="M156.31 2.944L159.324 0l2.976 2.944-2.976 2.976z" class="cls-3" data-name="패스 562" transform="translate(62.714 106)"/>
        <path id="패스_563" d="M144.37 11.21h21.021v3.628h-16.823v5.881h16.823v3.443h-16.823v7.788h16.823v3.65H144.37z" class="cls-3" data-name="패스 563" transform="translate(67.013 101.963)"/>
        <path id="패스_564" d="M184.4 33.208V28.9l3.622 1.4a31.119 31.119 0 0 0 9.759 1.792c4.409 0 6.636-1.325 6.636-3.66 0-1.613-1.113-2.656-4.953-3.372l-6.815-1.184c-5.055-.9-8.069-2.835-8.069-6.6 0-4.236 3.583-6.745 10.008-6.745a39.213 39.213 0 0 1 12.088 2.3V17.1l-3.411-1.222a26.255 26.255 0 0 0-8.824-1.683c-3.871 0-5.67 1.075-5.67 2.976 0 1.581 1.331 2.585 4.876 3.232l7.033 1.216c5.094.934 7.89 2.835 7.89 6.745 0 4.524-3.769 7.429-10.942 7.429a38.212 38.212 0 0 1-13.228-2.585" class="cls-3" data-name="패스 564" transform="translate(52.599 102.208)"/>
        <path id="패스_565" d="M228.13 33.208V28.9l3.622 1.4a31.085 31.085 0 0 0 9.759 1.792c4.415 0 6.636-1.325 6.636-3.66 0-1.613-1.113-2.656-4.953-3.372l-6.815-1.184c-5.055-.9-8.069-2.835-8.069-6.6 0-4.236 3.583-6.745 10.008-6.745a39.213 39.213 0 0 1 12.088 2.3V17.1l-3.411-1.222a26.255 26.255 0 0 0-8.824-1.683c-3.878 0-5.67 1.075-5.67 2.976 0 1.581 1.325 2.585 4.876 3.232l7.033 1.216c5.094.934 7.89 2.835 7.89 6.745 0 4.524-3.769 7.429-10.942 7.429a38.212 38.212 0 0 1-13.227-2.579" class="cls-3" data-name="패스 565" transform="translate(36.852 102.208)"/>
        <path id="사각형_1430" d="M0 0h4.198v24.393H0z" class="cls-2" data-name="사각형 1430" transform="translate(293.688 113.173)"/>
        <path id="패스_566" d="M313 13.379l4.236-4.409h-4.486l-2.508 2.617a19.767 19.767 0 0 0-8.357-1.613c-9.221 0-15.063 4.447-15.063 12.625 0 4.019 1.4 7.141 3.948 9.253l-4.2 4.377h4.486l2.515-2.617a19.6 19.6 0 0 0 8.325 1.613c9.183 0 15.031-4.447 15.031-12.625A11.6 11.6 0 0 0 313 13.379zm-19.519 15.678A8.432 8.432 0 0 1 291 22.6c0-6.169 4.2-9.074 10.872-9.074a15.733 15.733 0 0 1 5.631.9zm19.268-6.457c0 6.169-4.2 9.074-10.872 9.074a15.538 15.538 0 0 1-5.593-.9l14.027-14.6a8.416 8.416 0 0 1 2.438 6.425z" class="cls-2" data-name="패스 566" transform="translate(15.808 102.77)"/>
        <path id="패스_567" d="M369.314 11.21V35.6h-4.556l-19.191-19.328V35.6h-4.127V11.21H346l19.2 19.376V11.21z" class="cls-3" data-name="패스 567" transform="translate(-3.95 101.963)"/>
    </g>
    <g id="그룹_910" data-name="그룹 910" transform="translate(-118 -79)">
        <path id="패스_572" d="M0 4.957v15.122h13.811v-2.892H3.425v-3.825h10.386v-2.646H3.425V7.847h10.386v-2.89zM27.464 12.5l7.673-7.539H30.6l-5.337 5.359-5.316-5.363h-4.582L23.06 12.5l-7.65 7.583h4.537l5.315-5.4 5.315 5.4h4.56L27.464 12.5zM44.5 20.345c5.96 0 9.763-2.758 9.763-7.829s-3.8-7.827-9.763-7.827-9.74 2.758-9.74 7.829 3.779 7.827 9.74 7.827zm0-2.934c-3.825 0-6.226-1.512-6.226-4.892s2.4-4.892 6.226-4.892 6.228 1.512 6.228 4.892-2.404 4.892-6.228 4.892zM90.936 2.182l2.226 2.182 2.2-2.182L93.163 0zm-4.785 2.782V20.1h13.82v-2.9H89.579v-3.824h10.392v-2.649H89.579V7.856h10.392V4.964zm27.265 7.521l4.939-4.942h2.47V4.964h-19.318v2.581h2.47l4.964 4.962-4.964 5.009h-2.47V20.1h19.318v-2.584h-2.447zm-2.249-1.534l-3.381-3.405h6.766zm0 3.093l3.405 3.472h-6.811zm26.794-7.21l2.693-2.76h-3.495l-1.425 1.469a13.884 13.884 0 0 0-5.051-.846c-5.964 0-9.747 2.76-9.747 7.833a7.015 7.015 0 0 0 2.492 5.676l-2.693 2.782h3.495l1.425-1.469a13.844 13.844 0 0 0 5.029.846c5.964 0 9.769-2.76 9.769-7.833a7.079 7.079 0 0 0-2.492-5.7zm-13.6 5.7c0-3.428 2.4-5.006 6.319-5.006a10.845 10.845 0 0 1 2.8.333l-7.856 8.1a4.636 4.636 0 0 1-1.26-3.432zm6.319 5.009a10.569 10.569 0 0 1-2.78-.343l7.856-8.079a4.548 4.548 0 0 1 1.268 3.405c0 3.428-2.425 5.009-6.342 5.009zm-59.421-6.427l4.513-7.954a26.187 26.187 0 0 1-1.793 3.961c-1.6 2.974-2.459 3.792-2.72 3.993M66.4 7.123a26.3 26.3 0 0 1-1.8-3.961l4.513 7.954c-.261-.2-1.116-1.018-2.72-3.993m12.366.8a52.134 52.134 0 0 0-2.954-4.81.042.042 0 0 0 .051-.018.043.043 0 0 0 0-.04.119.119 0 0 0 .156-.071.125.125 0 0 0-.031-.134.044.044 0 0 0 .038-.02.043.043 0 0 0-.016-.058l-.065-.038.344-.2.17-.965-.739.643v.4l-.069-.04a.043.043 0 0 0-.058.016.047.047 0 0 0 0 .042.12.12 0 0 0-.154.074.126.126 0 0 0 .034.132.042.042 0 0 0-.036.02.043.043 0 0 0 .016.058l-.009.018-5.247 9.251-5.255-9.256-.009-.018a.042.042 0 0 0-.022-.078.122.122 0 0 0-.121-.205.047.047 0 0 0 0-.042.043.043 0 0 0-.058-.016l-.069.04v-.4l-.739-.645.172.965.344.2-.065.038a.042.042 0 0 0 .022.078.123.123 0 0 0-.007.172.121.121 0 0 0 .132.031.041.041 0 0 0 .051.058 52.133 52.133 0 0 0-2.954 4.81S60.4 9.99 58.728 12.507c3.47.083 6.942-1.706 10.412-1.351l.815 1.436-5.728 10.1.353.2L70.19 13l5.61 9.886.351-.2-5.729-10.092.788-1.394a10.441 10.441 0 0 1 2.126 2.514 48.785 48.785 0 0 0 4.392 6.777 36.547 36.547 0 0 0 2.144-4 30.839 30.839 0 0 1 2.034-3.6c-1.8-2.691-3.142-4.98-3.142-4.98" class="cls-3" data-name="패스 572" transform="translate(120.846 80.114)"/>
        <path id="패스_573" d="M272.191 52.212c-3.4-.2-6.793 1.53-10.189 1.355a30.526 30.526 0 0 1 2.012 3.557 35.887 35.887 0 0 0 2.121 3.955 48.022 48.022 0 0 0 4.343-6.7 11.813 11.813 0 0 1 1.715-2.168" class="cls-3" data-name="패스 573" transform="translate(-82.649 39.574)"/>
    </g>
</svg>
